<svg id="twogoodlogo" width="62" height="63" viewBox="0 0 62 63" fill="none" xmlns="http://www.w3.org/2000/svg">
<g transform="translate(0.000000,512.000000) scale(0.100000,-0.100000)"
fill="#000000" stroke="none">
<path d="M1775 3729 c-526 -29 -948 -95 -1100 -171 -67 -34 -209 -120 -234
-142 -31 -28 -44 -62 -31 -86 6 -11 44 -44 85 -75 128 -97 182 -200 235 -450
115 -550 264 -957 482 -1320 46 -77 97 -162 112 -189 37 -64 94 -120 153 -149
190 -96 562 -144 969 -126 393 18 675 89 776 196 14 15 55 80 91 143 130 233
155 263 233 275 59 8 89 38 98 96 9 61 45 127 86 160 19 15 141 82 270 149
279 144 402 224 526 342 267 255 352 547 230 786 -41 80 -91 128 -173 169 -74
36 -81 38 -177 38 -98 0 -105 -2 -219 -48 -65 -27 -121 -46 -125 -43 -3 4 -1
27 6 51 26 98 15 131 -61 179 -166 106 -573 181 -1171 216 -202 11 -849 11
-1061 -1z m1060 -59 c281 -18 548 -50 751 -90 198 -39 384 -104 384 -136 0
-31 -185 -84 -400 -113 -350 -48 -729 -71 -1185 -71 -750 0 -1263 57 -1653
183 l-73 24 25 17 c118 77 540 148 1096 185 184 12 871 13 1055 1z m-2078
-290 c295 -102 582 -145 1138 -171 279 -13 1020 -7 1250 11 353 26 667 79 800
134 33 13 61 23 62 22 1 -1 -14 -43 -33 -94 -23 -62 -41 -138 -55 -229 -14
-95 -37 -190 -75 -307 -30 -92 -54 -175 -54 -184 0 -8 -3 -13 -6 -10 -3 4 1
51 10 105 8 54 22 179 31 278 9 99 20 197 25 218 4 20 4 37 0 37 -19 0 -43
-99 -76 -309 -64 -411 -116 -607 -251 -951 -78 -197 -101 -245 -203 -415 -42
-71 -92 -156 -111 -188 -55 -94 -121 -133 -316 -183 -183 -46 -306 -58 -613
-59 -232 0 -305 3 -395 18 -236 40 -380 91 -444 159 -49 53 -225 347 -301 505
-133 275 -236 585 -324 978 -24 110 -56 231 -70 269 -53 141 -132 246 -225
301 -155 92 82 37 272 -63 109 -57 192 -123 234 -186 22 -32 55 -118 99 -252
123 -385 250 -644 440 -901 116 -157 328 -347 454 -407 19 -9 26 -11 16 -4
-388 260 -681 681 -861 1239 -25 77 -45 143 -45 145 0 2 19 -5 42 -17 142 -72
395 -165 571 -210 126 -32 186 -35 76 -5 -241 68 -643 220 -688 260 -10 9 -25
42 -35 73 -28 90 -65 150 -128 208 -86 80 -157 117 -386 200 -22 8 -3 25 29
25 16 0 82 -18 146 -40z m3761 -85 c71 -22 152 -97 194 -183 31 -62 33 -73 33
-172 0 -95 -3 -113 -33 -186 -42 -105 -93 -184 -178 -273 -133 -142 -260 -226
-598 -396 -259 -130 -309 -176 -355 -317 -8 -22 -19 -38 -28 -38 -52 0 81 291
165 360 19 16 47 31 61 35 65 16 227 82 336 137 305 153 485 324 551 523 66
200 -9 390 -173 436 -118 33 -273 -12 -361 -105 -54 -57 -71 -85 -103 -170
-11 -31 -24 -56 -29 -56 -15 0 -23 67 -16 122 9 66 47 140 88 171 41 31 170
96 223 113 55 18 161 17 223 -1z m4 -156 c70 -36 115 -133 104 -230 -17 -168
-146 -341 -358 -479 -208 -137 -528 -262 -528 -207 0 7 15 51 34 98 19 46 57
150 85 231 66 193 71 202 136 239 69 39 90 66 98 124 17 118 119 218 251 245
55 11 133 2 178 -21z"/>
<path d="M3653 3028 c-135 -405 -301 -717 -525 -990 -114 -138 -321 -337 -455
-436 -180 -135 -439 -271 -515 -272 -15 0 -66 20 -112 44 -254 133 -476 323
-647 553 -84 114 -101 134 -69 78 178 -307 424 -551 696 -691 141 -72 191 -70
369 19 635 315 1172 996 1285 1632 12 63 20 133 18 153 -3 32 -8 21 -45 -90z"/>
<path d="M1898 2623 c7 -3 16 -2 19 1 4 3 -2 6 -13 5 -11 0 -14 -3 -6 -6z"/>
</g>
</svg>